STARTFONT 2.1
FONT -sun-helmet-bold-r-normal--8-80-75-75-p-50-adobe-fontspecific
SIZE 8 75 75
FONTBOUNDINGBOX 11 10 -2 -2

STARTPROPERTIES 28
FOUNDRY "sun"
FAMILY_NAME "helmet"
WEIGHT_NAME "bold"
SLANT "r"
SETWIDTH_NAME "normal"
ADD_STYLE_NAME ""
PIXEL_SIZE 8
POINT_SIZE 80
RESOLUTION_X 75
RESOLUTION_Y 75
SPACING "p"
AVERAGE_WIDTH 50
CHARSET_REGISTRY "adobe"
CHARSET_ENCODING "fontspecific"
COPYRIGHT "© 1999 Sun Microsystems, Inc."
RAW_PIXELSIZE 1000
RAW_POINTSIZE 964
RAW_ASCENT 945
RAW_DESCENT 196
RAW_AVERAGE_WIDTH 6034
FACE_NAME "HelmetBoldItalic5"
_XMBDFED_INFO "Edited with xmbdfed 2.4."
WEIGHT 10
X_HEIGHT 0
QUAD_WIDTH 5
DEFAULT_CHAR 4
FONT_DESCENT 2
FONT_ASCENT 8
ENDPROPERTIES

CHARS 202

STARTCHAR char32
ENCODING 32
SWIDTH 32 0
DWIDTH 3 0
BBX 0 0 0 0
BITMAP
ENDCHAR

STARTCHAR char33
ENCODING 33
SWIDTH 32 0
DWIDTH 3 0
BBX 2 6 1 0
BITMAP
C0
C0
C0
C0
00
C0
ENDCHAR

STARTCHAR char34
ENCODING 34
SWIDTH 43 0
DWIDTH 4 0
BBX 4 3 0 3
BITMAP
F0
F0
E0
ENDCHAR

STARTCHAR char35
ENCODING 35
SWIDTH 53 0
DWIDTH 5 0
BBX 4 6 0 0
BITMAP
50
F0
50
50
E0
60
ENDCHAR

STARTCHAR char36
ENCODING 36
SWIDTH 64 0
DWIDTH 6 0
BBX 5 7 0 -1
BITMAP
70
F8
F0
78
28
F0
30
ENDCHAR

STARTCHAR char37
ENCODING 37
SWIDTH 96 0
DWIDTH 9 0
BBX 9 6 -1 0
BITMAP
7400
DC00
DF00
7F80
1F80
1B00
ENDCHAR

STARTCHAR char38
ENCODING 38
SWIDTH 64 0
DWIDTH 6 0
BBX 6 6 0 0
BITMAP
38
78
78
F8
D8
7C
ENDCHAR

STARTCHAR char39
ENCODING 39
SWIDTH 21 0
DWIDTH 2 0
BBX 2 3 0 3
BITMAP
C0
C0
C0
ENDCHAR

STARTCHAR char40
ENCODING 40
SWIDTH 32 0
DWIDTH 3 0
BBX 3 8 0 -2
BITMAP
60
40
C0
C0
C0
C0
E0
60
ENDCHAR

STARTCHAR char41
ENCODING 41
SWIDTH 32 0
DWIDTH 3 0
BBX 3 8 0 -2
BITMAP
C0
60
60
60
60
60
40
C0
ENDCHAR

STARTCHAR char42
ENCODING 42
SWIDTH 43 0
DWIDTH 4 0
BBX 3 3 0 3
BITMAP
60
E0
60
ENDCHAR

STARTCHAR char43
ENCODING 43
SWIDTH 64 0
DWIDTH 6 0
BBX 5 5 0 0
BITMAP
30
30
F8
30
30
ENDCHAR

STARTCHAR char44
ENCODING 44
SWIDTH 32 0
DWIDTH 3 0
BBX 2 3 0 -1
BITMAP
40
C0
C0
ENDCHAR

STARTCHAR char45
ENCODING 45
SWIDTH 32 0
DWIDTH 3 0
BBX 3 1 0 2
BITMAP
E0
ENDCHAR

STARTCHAR char46
ENCODING 46
SWIDTH 32 0
DWIDTH 3 0
BBX 2 1 0 0
BITMAP
C0
ENDCHAR

STARTCHAR char47
ENCODING 47
SWIDTH 43 0
DWIDTH 4 0
BBX 4 6 0 0
BITMAP
20
20
60
40
40
C0
ENDCHAR

STARTCHAR char48
ENCODING 48
SWIDTH 64 0
DWIDTH 6 0
BBX 5 6 0 0
BITMAP
70
D8
D8
D8
D8
70
ENDCHAR

STARTCHAR char49
ENCODING 49
SWIDTH 64 0
DWIDTH 6 0
BBX 3 6 1 0
BITMAP
60
60
E0
60
60
60
ENDCHAR

STARTCHAR char50
ENCODING 50
SWIDTH 64 0
DWIDTH 6 0
BBX 5 6 0 0
BITMAP
70
D8
D8
30
60
F8
ENDCHAR

STARTCHAR char51
ENCODING 51
SWIDTH 64 0
DWIDTH 6 0
BBX 5 6 0 0
BITMAP
70
D8
30
18
D8
70
ENDCHAR

STARTCHAR char52
ENCODING 52
SWIDTH 64 0
DWIDTH 6 0
BBX 5 6 0 0
BITMAP
18
38
78
D8
F8
18
ENDCHAR

STARTCHAR char53
ENCODING 53
SWIDTH 64 0
DWIDTH 6 0
BBX 5 6 0 0
BITMAP
78
40
70
D8
D8
70
ENDCHAR

STARTCHAR char54
ENCODING 54
SWIDTH 64 0
DWIDTH 6 0
BBX 5 6 0 0
BITMAP
70
D8
F0
D8
D8
70
ENDCHAR

STARTCHAR char55
ENCODING 55
SWIDTH 64 0
DWIDTH 6 0
BBX 5 5 0 0
BITMAP
F8
30
30
60
60
ENDCHAR

STARTCHAR char56
ENCODING 56
SWIDTH 64 0
DWIDTH 6 0
BBX 5 6 0 0
BITMAP
70
D8
70
D8
D8
70
ENDCHAR

STARTCHAR char57
ENCODING 57
SWIDTH 64 0
DWIDTH 6 0
BBX 5 6 0 0
BITMAP
70
D8
D8
78
18
70
ENDCHAR

STARTCHAR char58
ENCODING 58
SWIDTH 32 0
DWIDTH 3 0
BBX 2 4 1 0
BITMAP
C0
00
00
C0
ENDCHAR

STARTCHAR char59
ENCODING 59
SWIDTH 32 0
DWIDTH 3 0
BBX 2 5 1 -1
BITMAP
C0
00
00
C0
C0
ENDCHAR

STARTCHAR char60
ENCODING 60
SWIDTH 53 0
DWIDTH 5 0
BBX 4 4 0 0
BITMAP
30
40
60
10
ENDCHAR

STARTCHAR char61
ENCODING 61
SWIDTH 64 0
DWIDTH 6 0
BBX 5 3 0 1
BITMAP
F8
00
F8
ENDCHAR

STARTCHAR char62
ENCODING 62
SWIDTH 53 0
DWIDTH 5 0
BBX 5 4 0 0
BITMAP
60
10
30
C0
ENDCHAR

STARTCHAR char63
ENCODING 63
SWIDTH 53 0
DWIDTH 5 0
BBX 5 6 0 0
BITMAP
70
F8
38
60
00
60
ENDCHAR

STARTCHAR char64
ENCODING 64
SWIDTH 96 0
DWIDTH 9 0
BBX 7 6 1 0
BITMAP
38
7C
EE
EC
7C
38
ENDCHAR

STARTCHAR char65
ENCODING 65
SWIDTH 64 0
DWIDTH 6 0
BBX 6 6 0 0
BITMAP
30
70
78
58
F8
4C
ENDCHAR

STARTCHAR char66
ENCODING 66
SWIDTH 64 0
DWIDTH 6 0
BBX 6 6 0 0
BITMAP
FC
CC
F8
CC
CC
F8
ENDCHAR

STARTCHAR char67
ENCODING 67
SWIDTH 75 0
DWIDTH 7 0
BBX 6 6 0 0
BITMAP
78
EC
C0
C0
EC
78
ENDCHAR

STARTCHAR char68
ENCODING 68
SWIDTH 75 0
DWIDTH 7 0
BBX 6 6 0 0
BITMAP
F8
DC
CC
CC
DC
F8
ENDCHAR

STARTCHAR char69
ENCODING 69
SWIDTH 64 0
DWIDTH 6 0
BBX 6 6 0 0
BITMAP
F8
C0
F8
C0
C0
FC
ENDCHAR

STARTCHAR char70
ENCODING 70
SWIDTH 64 0
DWIDTH 6 0
BBX 5 6 0 0
BITMAP
F8
C0
C0
F8
C0
C0
ENDCHAR

STARTCHAR char71
ENCODING 71
SWIDTH 75 0
DWIDTH 7 0
BBX 6 6 0 0
BITMAP
78
EC
C0
CC
EC
7C
ENDCHAR

STARTCHAR char72
ENCODING 72
SWIDTH 75 0
DWIDTH 7 0
BBX 6 6 0 0
BITMAP
CC
CC
FC
CC
CC
CC
ENDCHAR

STARTCHAR char73
ENCODING 73
SWIDTH 32 0
DWIDTH 3 0
BBX 2 6 0 0
BITMAP
C0
C0
C0
C0
C0
C0
ENDCHAR

STARTCHAR char74
ENCODING 74
SWIDTH 53 0
DWIDTH 5 0
BBX 4 6 0 0
BITMAP
30
30
30
F0
F0
60
ENDCHAR

STARTCHAR char75
ENCODING 75
SWIDTH 75 0
DWIDTH 7 0
BBX 6 6 0 0
BITMAP
D8
F8
F0
F8
D8
CC
ENDCHAR

STARTCHAR char76
ENCODING 76
SWIDTH 53 0
DWIDTH 5 0
BBX 5 6 0 0
BITMAP
C0
C0
C0
C0
C0
F8
ENDCHAR

STARTCHAR char77
ENCODING 77
SWIDTH 86 0
DWIDTH 8 0
BBX 7 6 0 0
BITMAP
EE
EE
EE
FE
FE
D2
ENDCHAR

STARTCHAR char78
ENCODING 78
SWIDTH 75 0
DWIDTH 7 0
BBX 6 6 0 0
BITMAP
CC
EC
FC
FC
DC
CC
ENDCHAR

STARTCHAR char79
ENCODING 79
SWIDTH 75 0
DWIDTH 7 0
BBX 6 6 0 0
BITMAP
78
EC
CC
CC
EC
78
ENDCHAR

STARTCHAR char80
ENCODING 80
SWIDTH 64 0
DWIDTH 6 0
BBX 6 6 0 0
BITMAP
F8
CC
CC
F8
C0
C0
ENDCHAR

STARTCHAR char81
ENCODING 81
SWIDTH 75 0
DWIDTH 7 0
BBX 6 7 0 -1
BITMAP
78
EC
CC
CC
FC
7C
08
ENDCHAR

STARTCHAR char82
ENCODING 82
SWIDTH 64 0
DWIDTH 6 0
BBX 6 6 0 0
BITMAP
F8
CC
CC
F8
CC
CC
ENDCHAR

STARTCHAR char83
ENCODING 83
SWIDTH 64 0
DWIDTH 6 0
BBX 5 6 0 0
BITMAP
70
D8
F0
38
D8
70
ENDCHAR

STARTCHAR char84
ENCODING 84
SWIDTH 53 0
DWIDTH 5 0
BBX 5 6 0 0
BITMAP
F8
60
60
60
60
60
ENDCHAR

STARTCHAR char85
ENCODING 85
SWIDTH 75 0
DWIDTH 7 0
BBX 6 6 0 0
BITMAP
CC
CC
CC
CC
CC
78
ENDCHAR

STARTCHAR char86
ENCODING 86
SWIDTH 64 0
DWIDTH 6 0
BBX 5 6 0 0
BITMAP
D8
D8
58
70
70
70
ENDCHAR

STARTCHAR char87
ENCODING 87
SWIDTH 86 0
DWIDTH 8 0
BBX 8 6 0 0
BITMAP
DA
DB
DE
7E
6E
6C
ENDCHAR

STARTCHAR char88
ENCODING 88
SWIDTH 75 0
DWIDTH 7 0
BBX 6 6 0 0
BITMAP
C8
78
30
70
F8
4C
ENDCHAR

STARTCHAR char89
ENCODING 89
SWIDTH 64 0
DWIDTH 6 0
BBX 6 6 0 0
BITMAP
C8
78
78
30
30
30
ENDCHAR

STARTCHAR char90
ENCODING 90
SWIDTH 64 0
DWIDTH 6 0
BBX 5 6 0 0
BITMAP
F8
38
30
60
E0
F8
ENDCHAR

STARTCHAR char91
ENCODING 91
SWIDTH 43 0
DWIDTH 4 0
BBX 3 7 1 -1
BITMAP
E0
C0
C0
C0
C0
C0
E0
ENDCHAR

STARTCHAR char92
ENCODING 92
SWIDTH 21 0
DWIDTH 2 0
BBX 2 6 0 0
BITMAP
80
80
40
40
40
40
ENDCHAR

STARTCHAR char93
ENCODING 93
SWIDTH 43 0
DWIDTH 4 0
BBX 3 7 0 -1
BITMAP
E0
60
60
60
60
60
E0
ENDCHAR

STARTCHAR char94
ENCODING 94
SWIDTH 0 0
DWIDTH 0 0
BBX 4 1 -2 6
BITMAP
60
ENDCHAR

STARTCHAR char95
ENCODING 95
SWIDTH 53 0
DWIDTH 5 0
BBX 5 1 0 -1
BITMAP
F8
ENDCHAR

STARTCHAR char96
ENCODING 96
SWIDTH 0 0
DWIDTH 0 0
BBX 3 1 -2 5
BITMAP
40
ENDCHAR

STARTCHAR char97
ENCODING 97
SWIDTH 53 0
DWIDTH 5 0
BBX 5 4 0 0
BITMAP
78
38
D8
F8
ENDCHAR

STARTCHAR char98
ENCODING 98
SWIDTH 64 0
DWIDTH 6 0
BBX 5 6 0 0
BITMAP
C0
C0
F0
D8
D8
F0
ENDCHAR

STARTCHAR char99
ENCODING 99
SWIDTH 53 0
DWIDTH 5 0
BBX 5 4 0 0
BITMAP
70
C0
D8
70
ENDCHAR

STARTCHAR char100
ENCODING 100
SWIDTH 64 0
DWIDTH 6 0
BBX 5 6 0 0
BITMAP
18
18
78
D8
D8
78
ENDCHAR

STARTCHAR char101
ENCODING 101
SWIDTH 53 0
DWIDTH 5 0
BBX 5 4 0 0
BITMAP
70
F8
C0
70
ENDCHAR

STARTCHAR char102
ENCODING 102
SWIDTH 32 0
DWIDTH 3 0
BBX 3 6 0 0
BITMAP
E0
C0
E0
C0
C0
C0
ENDCHAR

STARTCHAR char103
ENCODING 103
SWIDTH 64 0
DWIDTH 6 0
BBX 5 5 0 -1
BITMAP
78
D8
D8
78
70
ENDCHAR

STARTCHAR char104
ENCODING 104
SWIDTH 64 0
DWIDTH 6 0
BBX 5 6 0 0
BITMAP
C0
C0
F8
D8
D8
D8
ENDCHAR

STARTCHAR char105
ENCODING 105
SWIDTH 32 0
DWIDTH 3 0
BBX 2 6 0 0
BITMAP
C0
00
C0
C0
C0
C0
ENDCHAR

STARTCHAR char106
ENCODING 106
SWIDTH 32 0
DWIDTH 3 0
BBX 2 7 0 -1
BITMAP
C0
00
C0
C0
C0
C0
C0
ENDCHAR

STARTCHAR char107
ENCODING 107
SWIDTH 53 0
DWIDTH 5 0
BBX 5 6 0 0
BITMAP
C0
C0
D0
E0
F0
D8
ENDCHAR

STARTCHAR char108
ENCODING 108
SWIDTH 32 0
DWIDTH 3 0
BBX 2 6 0 0
BITMAP
C0
C0
C0
C0
C0
C0
ENDCHAR

STARTCHAR char109
ENCODING 109
SWIDTH 86 0
DWIDTH 8 0
BBX 8 4 0 0
BITMAP
F7
DB
DB
DB
ENDCHAR

STARTCHAR char110
ENCODING 110
SWIDTH 64 0
DWIDTH 6 0
BBX 5 4 0 0
BITMAP
F8
D8
D8
D8
ENDCHAR

STARTCHAR char111
ENCODING 111
SWIDTH 53 0
DWIDTH 5 0
BBX 5 4 0 0
BITMAP
70
D8
D8
70
ENDCHAR

STARTCHAR char112
ENCODING 112
SWIDTH 64 0
DWIDTH 6 0
BBX 5 5 0 -1
BITMAP
F0
D8
D8
F0
C0
ENDCHAR

STARTCHAR char113
ENCODING 113
SWIDTH 64 0
DWIDTH 6 0
BBX 5 5 0 -1
BITMAP
78
D8
D8
78
18
ENDCHAR

STARTCHAR char114
ENCODING 114
SWIDTH 43 0
DWIDTH 4 0
BBX 4 4 0 0
BITMAP
F0
C0
C0
C0
ENDCHAR

STARTCHAR char115
ENCODING 115
SWIDTH 53 0
DWIDTH 5 0
BBX 5 4 0 0
BITMAP
F0
F0
38
F0
ENDCHAR

STARTCHAR char116
ENCODING 116
SWIDTH 32 0
DWIDTH 3 0
BBX 3 6 0 0
BITMAP
C0
C0
E0
C0
C0
E0
ENDCHAR

STARTCHAR char117
ENCODING 117
SWIDTH 64 0
DWIDTH 6 0
BBX 5 4 0 0
BITMAP
D8
D8
D8
F8
ENDCHAR

STARTCHAR char118
ENCODING 118
SWIDTH 53 0
DWIDTH 5 0
BBX 5 4 0 0
BITMAP
D0
F0
70
60
ENDCHAR

STARTCHAR char119
ENCODING 119
SWIDTH 86 0
DWIDTH 8 0
BBX 7 4 0 0
BITMAP
D4
FE
6C
6C
ENDCHAR

STARTCHAR char120
ENCODING 120
SWIDTH 53 0
DWIDTH 5 0
BBX 5 4 0 0
BITMAP
F0
70
70
50
ENDCHAR

STARTCHAR char121
ENCODING 121
SWIDTH 53 0
DWIDTH 5 0
BBX 5 5 0 -1
BITMAP
D0
50
70
60
E0
ENDCHAR

STARTCHAR char122
ENCODING 122
SWIDTH 53 0
DWIDTH 5 0
BBX 4 4 0 0
BITMAP
F0
30
60
F0
ENDCHAR

STARTCHAR char123
ENCODING 123
SWIDTH 32 0
DWIDTH 3 0
BBX 2 8 0 -2
BITMAP
40
40
40
80
40
C0
C0
C0
ENDCHAR

STARTCHAR char124
ENCODING 124
SWIDTH 21 0
DWIDTH 2 0
BBX 2 6 0 0
BITMAP
C0
C0
C0
C0
C0
C0
ENDCHAR

STARTCHAR char125
ENCODING 125
SWIDTH 32 0
DWIDTH 3 0
BBX 2 8 0 -2
BITMAP
C0
C0
C0
40
40
40
C0
C0
ENDCHAR

STARTCHAR char126
ENCODING 126
SWIDTH 0 0
DWIDTH 0 0
BBX 4 1 -2 6
BITMAP
60
ENDCHAR

STARTCHAR char128
ENCODING 128
SWIDTH 75 0
DWIDTH 7 0
BBX 7 6 -1 0
BITMAP
3C
76
70
70
76
3C
ENDCHAR

STARTCHAR char130
ENCODING 130
SWIDTH 21 0
DWIDTH 2 0
BBX 2 3 0 -1
BITMAP
40
C0
C0
ENDCHAR

STARTCHAR char131
ENCODING 131
SWIDTH 0 0
DWIDTH 0 0
BBX 4 1 -2 6
BITMAP
60
ENDCHAR

STARTCHAR char132
ENCODING 132
SWIDTH 43 0
DWIDTH 4 0
BBX 4 2 0 -1
BITMAP
F0
F0
ENDCHAR

STARTCHAR char133
ENCODING 133
SWIDTH 96 0
DWIDTH 9 0
BBX 7 1 1 0
BITMAP
F6
ENDCHAR

STARTCHAR char134
ENCODING 134
SWIDTH 53 0
DWIDTH 5 0
BBX 5 7 0 -1
BITMAP
60
60
F8
60
60
60
60
ENDCHAR

STARTCHAR char136
ENCODING 136
SWIDTH 0 0
DWIDTH 0 0
BBX 4 1 -2 5
BITMAP
60
ENDCHAR

STARTCHAR char138
ENCODING 138
SWIDTH 86 0
DWIDTH 8 0
BBX 0 0 0 0
BITMAP
ENDCHAR

STARTCHAR char139
ENCODING 139
SWIDTH 32 0
DWIDTH 3 0
BBX 1 3 1 1
BITMAP
80
80
80
ENDCHAR

STARTCHAR char140
ENCODING 140
SWIDTH 107 0
DWIDTH 10 0
BBX 9 6 0 0
BITMAP
7F80
EF80
CC00
CF00
EF80
7F80
ENDCHAR

STARTCHAR char141
ENCODING 141
SWIDTH 86 0
DWIDTH 8 0
BBX 0 0 0 0
BITMAP
ENDCHAR

STARTCHAR char145
ENCODING 145
SWIDTH 32 0
DWIDTH 3 0
BBX 2 3 0 3
BITMAP
C0
C0
C0
ENDCHAR

STARTCHAR char146
ENCODING 146
SWIDTH 32 0
DWIDTH 3 0
BBX 2 3 0 3
BITMAP
C0
40
C0
ENDCHAR

STARTCHAR char147
ENCODING 147
SWIDTH 43 0
DWIDTH 4 0
BBX 4 3 0 3
BITMAP
50
F0
F0
ENDCHAR

STARTCHAR char148
ENCODING 148
SWIDTH 43 0
DWIDTH 4 0
BBX 4 3 0 3
BITMAP
F0
F0
E0
ENDCHAR

STARTCHAR char149
ENCODING 149
SWIDTH 32 0
DWIDTH 3 0
BBX 2 1 0 2
BITMAP
C0
ENDCHAR

STARTCHAR char150
ENCODING 150
SWIDTH 64 0
DWIDTH 6 0
BBX 5 1 0 2
BITMAP
F8
ENDCHAR

STARTCHAR char151
ENCODING 151
SWIDTH 64 0
DWIDTH 6 0
BBX 5 1 0 2
BITMAP
F8
ENDCHAR

STARTCHAR char152
ENCODING 152
SWIDTH 0 0
DWIDTH 0 0
BBX 3 1 -2 5
BITMAP
60
ENDCHAR

STARTCHAR char153
ENCODING 153
SWIDTH 75 0
DWIDTH 7 0
BBX 7 4 0 2
BITMAP
F2
7E
7E
7E
ENDCHAR

STARTCHAR char155
ENCODING 155
SWIDTH 32 0
DWIDTH 3 0
BBX 1 3 1 1
BITMAP
80
80
80
ENDCHAR

STARTCHAR char156
ENCODING 156
SWIDTH 86 0
DWIDTH 8 0
BBX 8 4 0 0
BITMAP
7E
DF
D8
7E
ENDCHAR

STARTCHAR char157
ENCODING 157
SWIDTH 86 0
DWIDTH 8 0
BBX 0 0 0 0
BITMAP
ENDCHAR

STARTCHAR char159
ENCODING 159
SWIDTH 64 0
DWIDTH 6 0
BBX 6 7 0 0
BITMAP
78
EC
78
78
30
30
30
ENDCHAR

STARTCHAR char160
ENCODING 160
SWIDTH 32 0
DWIDTH 3 0
BBX 0 0 0 0
BITMAP
ENDCHAR

STARTCHAR char161
ENCODING 161
SWIDTH 32 0
DWIDTH 3 0
BBX 2 6 0 0
BITMAP
C0
00
C0
C0
C0
C0
ENDCHAR

STARTCHAR char162
ENCODING 162
SWIDTH 53 0
DWIDTH 5 0
BBX 5 6 0 -1
BITMAP
60
70
E0
F8
70
60
ENDCHAR

STARTCHAR char163
ENCODING 163
SWIDTH 53 0
DWIDTH 5 0
BBX 5 6 0 0
BITMAP
70
78
60
E0
48
F8
ENDCHAR

STARTCHAR char164
ENCODING 164
SWIDTH 0 0
DWIDTH 0 0
BBX 3 1 -1 6
BITMAP
C0
ENDCHAR

STARTCHAR char165
ENCODING 165
SWIDTH 0 0
DWIDTH 0 0
BBX 4 1 -2 6
BITMAP
60
ENDCHAR

STARTCHAR char166
ENCODING 166
SWIDTH 86 0
DWIDTH 8 0
BBX 0 0 0 0
BITMAP
ENDCHAR

STARTCHAR char167
ENCODING 167
SWIDTH 64 0
DWIDTH 6 0
BBX 5 8 0 -2
BITMAP
70
D8
F0
98
F8
18
58
70
ENDCHAR

STARTCHAR char168
ENCODING 168
SWIDTH 0 0
DWIDTH 0 0
BBX 4 1 -2 5
BITMAP
F0
ENDCHAR

STARTCHAR char169
ENCODING 169
SWIDTH 75 0
DWIDTH 7 0
BBX 8 6 -1 0
BITMAP
18
66
7E
F3
7E
3C
ENDCHAR

STARTCHAR char170
ENCODING 170
SWIDTH 0 0
DWIDTH 0 0
BBX 4 1 -2 6
BITMAP
F0
ENDCHAR

STARTCHAR char171
ENCODING 171
SWIDTH 43 0
DWIDTH 4 0
BBX 4 4 0 0
BITMAP
50
F0
F0
50
ENDCHAR

STARTCHAR char172
ENCODING 172
SWIDTH 64 0
DWIDTH 6 0
BBX 2 2 4 0
BITMAP
C0
C0
ENDCHAR

STARTCHAR char174
ENCODING 174
SWIDTH 75 0
DWIDTH 7 0
BBX 8 6 -1 0
BITMAP
18
66
7E
FB
5E
3C
ENDCHAR

STARTCHAR char176
ENCODING 176
SWIDTH 32 0
DWIDTH 3 0
BBX 4 3 -1 3
BITMAP
40
F0
60
ENDCHAR

STARTCHAR char177
ENCODING 177
SWIDTH 53 0
DWIDTH 5 0
BBX 4 5 0 0
BITMAP
60
F0
60
60
F0
ENDCHAR

STARTCHAR char179
ENCODING 179
SWIDTH 86 0
DWIDTH 8 0
BBX 0 0 0 0
BITMAP
ENDCHAR

STARTCHAR char180
ENCODING 180
SWIDTH 0 0
DWIDTH 0 0
BBX 3 1 -1 5
BITMAP
40
ENDCHAR

STARTCHAR char182
ENCODING 182
SWIDTH 64 0
DWIDTH 6 0
BBX 4 7 1 -1
BITMAP
E0
F0
F0
70
70
70
70
ENDCHAR

STARTCHAR char183
ENCODING 183
SWIDTH 10 0
DWIDTH 1 0
BBX 2 1 0 2
BITMAP
C0
ENDCHAR

STARTCHAR char184
ENCODING 184
SWIDTH 0 0
DWIDTH 0 0
BBX 2 2 -1 -2
BITMAP
C0
C0
ENDCHAR

STARTCHAR char186
ENCODING 186
SWIDTH 0 0
DWIDTH 0 0
BBX 4 1 -2 6
BITMAP
60
ENDCHAR

STARTCHAR char187
ENCODING 187
SWIDTH 43 0
DWIDTH 4 0
BBX 4 4 0 0
BITMAP
A0
F0
F0
A0
ENDCHAR

STARTCHAR char189
ENCODING 189
SWIDTH 86 0
DWIDTH 8 0
BBX 0 0 0 0
BITMAP
ENDCHAR

STARTCHAR char191
ENCODING 191
SWIDTH 53 0
DWIDTH 5 0
BBX 5 6 0 0
BITMAP
60
00
60
E0
F0
70
ENDCHAR

STARTCHAR char192
ENCODING 192
SWIDTH 64 0
DWIDTH 6 0
BBX 6 7 0 0
BITMAP
20
30
70
78
58
F8
4C
ENDCHAR

STARTCHAR char193
ENCODING 193
SWIDTH 64 0
DWIDTH 6 0
BBX 6 7 0 0
BITMAP
30
30
70
78
58
F8
4C
ENDCHAR

STARTCHAR char194
ENCODING 194
SWIDTH 64 0
DWIDTH 6 0
BBX 6 7 0 0
BITMAP
70
30
70
78
58
F8
4C
ENDCHAR

STARTCHAR char195
ENCODING 195
SWIDTH 64 0
DWIDTH 6 0
BBX 6 7 0 0
BITMAP
70
30
70
78
58
F8
4C
ENDCHAR

STARTCHAR char196
ENCODING 196
SWIDTH 64 0
DWIDTH 6 0
BBX 6 7 0 0
BITMAP
78
30
30
78
78
F8
4C
ENDCHAR

STARTCHAR char197
ENCODING 197
SWIDTH 64 0
DWIDTH 6 0
BBX 6 8 0 0
BITMAP
78
78
30
70
78
78
F8
4C
ENDCHAR

STARTCHAR char198
ENCODING 198
SWIDTH 96 0
DWIDTH 9 0
BBX 8 6 0 0
BITMAP
7F
7F
78
DF
F8
DF
ENDCHAR

STARTCHAR char199
ENCODING 199
SWIDTH 75 0
DWIDTH 7 0
BBX 6 8 0 -2
BITMAP
38
EC
C0
C0
EC
78
30
30
ENDCHAR

STARTCHAR char200
ENCODING 200
SWIDTH 64 0
DWIDTH 6 0
BBX 6 7 0 0
BITMAP
60
F8
C0
F8
C0
C0
FC
ENDCHAR

STARTCHAR char201
ENCODING 201
SWIDTH 64 0
DWIDTH 6 0
BBX 6 7 0 0
BITMAP
30
F8
C0
F8
C0
C0
FC
ENDCHAR

STARTCHAR char202
ENCODING 202
SWIDTH 64 0
DWIDTH 6 0
BBX 6 7 0 0
BITMAP
70
F8
C0
F8
C0
C0
FC
ENDCHAR

STARTCHAR char203
ENCODING 203
SWIDTH 64 0
DWIDTH 6 0
BBX 6 7 0 0
BITMAP
78
F8
E0
F8
E0
E0
FC
ENDCHAR

STARTCHAR char204
ENCODING 204
SWIDTH 32 0
DWIDTH 3 0
BBX 2 7 0 0
BITMAP
80
C0
C0
C0
C0
C0
C0
ENDCHAR

STARTCHAR char205
ENCODING 205
SWIDTH 32 0
DWIDTH 3 0
BBX 3 7 0 0
BITMAP
C0
C0
C0
C0
C0
C0
C0
ENDCHAR

STARTCHAR char206
ENCODING 206
SWIDTH 32 0
DWIDTH 3 0
BBX 4 7 -1 0
BITMAP
70
60
60
60
60
60
60
ENDCHAR

STARTCHAR char207
ENCODING 207
SWIDTH 32 0
DWIDTH 3 0
BBX 4 7 -1 0
BITMAP
F0
20
60
60
60
60
60
ENDCHAR

STARTCHAR char209
ENCODING 209
SWIDTH 75 0
DWIDTH 7 0
BBX 6 7 0 0
BITMAP
78
CC
EC
FC
FC
DC
CC
ENDCHAR

STARTCHAR char210
ENCODING 210
SWIDTH 75 0
DWIDTH 7 0
BBX 6 7 0 0
BITMAP
20
78
EC
CC
CC
EC
78
ENDCHAR

STARTCHAR char211
ENCODING 211
SWIDTH 75 0
DWIDTH 7 0
BBX 6 7 0 0
BITMAP
30
78
EC
CC
CC
EC
78
ENDCHAR

STARTCHAR char212
ENCODING 212
SWIDTH 75 0
DWIDTH 7 0
BBX 6 7 0 0
BITMAP
30
78
EC
CC
CC
EC
78
ENDCHAR

STARTCHAR char213
ENCODING 213
SWIDTH 75 0
DWIDTH 7 0
BBX 6 7 0 0
BITMAP
70
78
EC
CC
CC
EC
78
ENDCHAR

STARTCHAR char214
ENCODING 214
SWIDTH 75 0
DWIDTH 7 0
BBX 6 7 0 0
BITMAP
78
78
7C
CC
CC
FC
78
ENDCHAR

STARTCHAR char216
ENCODING 216
SWIDTH 75 0
DWIDTH 7 0
BBX 6 6 0 0
BITMAP
7C
EC
DC
EC
EC
78
ENDCHAR

STARTCHAR char217
ENCODING 217
SWIDTH 75 0
DWIDTH 7 0
BBX 6 7 0 0
BITMAP
20
CC
CC
CC
CC
CC
78
ENDCHAR

STARTCHAR char218
ENCODING 218
SWIDTH 75 0
DWIDTH 7 0
BBX 6 7 0 0
BITMAP
30
CC
CC
CC
CC
CC
78
ENDCHAR

STARTCHAR char219
ENCODING 219
SWIDTH 75 0
DWIDTH 7 0
BBX 6 7 0 0
BITMAP
70
CC
CC
CC
CC
CC
78
ENDCHAR

STARTCHAR char220
ENCODING 220
SWIDTH 75 0
DWIDTH 7 0
BBX 6 7 0 0
BITMAP
78
CC
CC
CC
CC
CC
78
ENDCHAR

STARTCHAR char222
ENCODING 222
SWIDTH 86 0
DWIDTH 8 0
BBX 0 0 0 0
BITMAP
ENDCHAR

STARTCHAR char223
ENCODING 223
SWIDTH 64 0
DWIDTH 6 0
BBX 5 6 0 0
BITMAP
70
D8
F0
D8
D8
F0
ENDCHAR

STARTCHAR char224
ENCODING 224
SWIDTH 53 0
DWIDTH 5 0
BBX 5 6 0 0
BITMAP
60
00
78
38
D8
F8
ENDCHAR

STARTCHAR char225
ENCODING 225
SWIDTH 53 0
DWIDTH 5 0
BBX 5 6 0 0
BITMAP
30
00
78
38
D8
F8
ENDCHAR

STARTCHAR char226
ENCODING 226
SWIDTH 53 0
DWIDTH 5 0
BBX 5 6 0 0
BITMAP
70
00
78
38
D8
F8
ENDCHAR

STARTCHAR char227
ENCODING 227
SWIDTH 53 0
DWIDTH 5 0
BBX 5 6 0 0
BITMAP
70
00
78
38
D8
F8
ENDCHAR

STARTCHAR char228
ENCODING 228
SWIDTH 53 0
DWIDTH 5 0
BBX 5 6 0 0
BITMAP
D8
00
78
38
D8
E8
ENDCHAR

STARTCHAR char229
ENCODING 229
SWIDTH 53 0
DWIDTH 5 0
BBX 5 7 0 0
BITMAP
20
20
30
58
B8
D8
F8
ENDCHAR

STARTCHAR char230
ENCODING 230
SWIDTH 86 0
DWIDTH 8 0
BBX 7 4 0 0
BITMAP
7E
7E
D0
EE
ENDCHAR

STARTCHAR char231
ENCODING 231
SWIDTH 53 0
DWIDTH 5 0
BBX 5 6 0 -2
BITMAP
70
C0
D8
70
60
60
ENDCHAR

STARTCHAR char232
ENCODING 232
SWIDTH 53 0
DWIDTH 5 0
BBX 5 6 0 0
BITMAP
60
00
70
F8
C0
70
ENDCHAR

STARTCHAR char233
ENCODING 233
SWIDTH 53 0
DWIDTH 5 0
BBX 5 6 0 0
BITMAP
20
00
70
F8
C0
70
ENDCHAR

STARTCHAR char234
ENCODING 234
SWIDTH 53 0
DWIDTH 5 0
BBX 5 6 0 0
BITMAP
60
00
70
F8
C0
70
ENDCHAR

STARTCHAR char235
ENCODING 235
SWIDTH 53 0
DWIDTH 5 0
BBX 5 6 0 0
BITMAP
F0
00
70
F8
C0
70
ENDCHAR

STARTCHAR char236
ENCODING 236
SWIDTH 32 0
DWIDTH 3 0
BBX 2 6 0 0
BITMAP
80
00
C0
C0
C0
C0
ENDCHAR

STARTCHAR char237
ENCODING 237
SWIDTH 32 0
DWIDTH 3 0
BBX 3 6 0 0
BITMAP
C0
00
C0
C0
C0
C0
ENDCHAR

STARTCHAR char238
ENCODING 238
SWIDTH 32 0
DWIDTH 3 0
BBX 4 6 -1 0
BITMAP
60
00
60
60
60
60
ENDCHAR

STARTCHAR char239
ENCODING 239
SWIDTH 32 0
DWIDTH 3 0
BBX 4 6 -1 0
BITMAP
F0
00
20
60
60
60
ENDCHAR

STARTCHAR char241
ENCODING 241
SWIDTH 64 0
DWIDTH 6 0
BBX 5 6 0 0
BITMAP
70
00
F8
D8
D8
D8
ENDCHAR

STARTCHAR char242
ENCODING 242
SWIDTH 53 0
DWIDTH 5 0
BBX 5 6 0 0
BITMAP
60
00
70
D8
D8
70
ENDCHAR

STARTCHAR char243
ENCODING 243
SWIDTH 53 0
DWIDTH 5 0
BBX 5 6 0 0
BITMAP
20
00
70
D8
D8
70
ENDCHAR

STARTCHAR char244
ENCODING 244
SWIDTH 53 0
DWIDTH 5 0
BBX 5 6 0 0
BITMAP
60
00
70
D8
D8
70
ENDCHAR

STARTCHAR char245
ENCODING 245
SWIDTH 53 0
DWIDTH 5 0
BBX 5 6 0 0
BITMAP
70
00
70
D8
D8
70
ENDCHAR

STARTCHAR char246
ENCODING 246
SWIDTH 53 0
DWIDTH 5 0
BBX 5 6 0 0
BITMAP
50
00
70
D8
D8
70
ENDCHAR

STARTCHAR char247
ENCODING 247
SWIDTH 53 0
DWIDTH 5 0
BBX 4 3 0 1
BITMAP
60
F0
60
ENDCHAR

STARTCHAR char248
ENCODING 248
SWIDTH 53 0
DWIDTH 5 0
BBX 5 5 0 0
BITMAP
10
78
F8
D8
F0
ENDCHAR

STARTCHAR char249
ENCODING 249
SWIDTH 64 0
DWIDTH 6 0
BBX 5 6 0 0
BITMAP
60
00
D8
D8
D8
F8
ENDCHAR

STARTCHAR char250
ENCODING 250
SWIDTH 64 0
DWIDTH 6 0
BBX 5 6 0 0
BITMAP
30
00
D8
D8
D8
F8
ENDCHAR

STARTCHAR char251
ENCODING 251
SWIDTH 64 0
DWIDTH 6 0
BBX 5 6 0 0
BITMAP
70
00
D8
D8
D8
F8
ENDCHAR

STARTCHAR char252
ENCODING 252
SWIDTH 64 0
DWIDTH 6 0
BBX 5 6 0 0
BITMAP
D8
00
D8
D8
D8
F8
ENDCHAR

STARTCHAR char255
ENCODING 255
SWIDTH 53 0
DWIDTH 5 0
BBX 5 7 0 -1
BITMAP
F0
00
F0
F0
70
60
E0
ENDCHAR
ENDFONT
